<svg xmlns="http://www.w3.org/2000/svg" width="1366" height="768"><rect width="1366" height="768" x="0" y="0" fill="#FFFFFF" id="backgorund"/><g id="viz"><g transform="translate(0,0)"><g transform="translate(10,20)"><g><path fill="rgb(158, 1, 66)" d="M0,384.43787199999997C0,384.43787199999997,37.389061633117706,383.93108993454643,56.08333333333333,383.6439547744444C74.77795052839174,383.3568143077051,93.4848288379374,383.5737761983538,112.16666666666666,382.71504262490856C130.87375182394686,381.8551485270618,149.55212958950952,379.7962484793105,168.25,378.48361633824464C186.94102098794525,377.1714650418945,205.64398101196952,376.1956757440078,224.33333333333331,374.84047729974446C243.03287545502226,373.48453997479066,261.7100824568022,371.4226262333195,280.4166666666667,370.3497482421479C299.0990027972066,369.27826095011966,317.8180846022029,369.4860395896523,336.5,368.40408572598045C355.20700716934044,367.3206786848057,373.8759467741496,364.91090898766754,392.58333333333337,363.85017057472163C411.26487140325236,362.7908978120093,429.9710112804824,362.55568489255035,448.66666666666663,362.04026418993766C467.3599004830472,361.52491024760604,486.05914493421426,361.3957232602132,504.75,360.7577783468378C523.4480365818998,360.1195883183162,542.1342481350403,358.7163784889876,560.8333333333334,358.2113741094723C579.5231416274859,357.7066202704069,598.2236435825243,358.0523656813139,616.9166666666666,357.7274805669363C635.6125329038153,357.4025460385027,654.3044621902584,356.6431098017906,673,356.2617658828759C691.6933513348743,355.88046656277965,710.3897173006535,355.35346657858594,729.0833333333333,355.4394756115751C747.778606336407,355.52549226825903,766.4715492221922,356.39809196099884,785.1666666666667,356.7780344753787C803.860438207979,357.1579496368504,822.5566208745929,357.3083916237935,841.25,357.71907725232137C859.9455100063695,358.1298096954021,878.6371653938136,358.9866499190078,897.3333333333333,359.2423550400885C916.0260549180442,359.49801302581096,934.7224758825994,359.1541931363905,953.4166666666667,359.2534453211703C972.1113647852566,359.3527001995173,990.8055314596571,359.6478163472159,1009.5,359.8378917891334C1028.1944203486698,360.0279667410634,1046.8886592286515,360.30178423260577,1065.5833333333333,360.393896576028C1084.2775481288252,360.4860066563433,1102.9722271339588,360.4046896276928,1121.6666666666667,360.3905728024837C1140.361116022853,360.37645596985647,1159.0555641905971,360.34527080045115,1177.75,360.3091955615037C1196.4444530795022,360.2731202892298,1215.139220105172,360.3101709385336,1233.8333333333333,360.17412121921353C1252.5281090175354,360.03806667875233,1271.2225179732839,359.76116676434305,1289.9166666666667,359.4928634281244C1308.6114068808893,359.22455160224325,1346,358.56426790757575,1346,358.56426790757575L1346,448.5181319075757C1346,448.5181319075757,1308.6161094210656,446.3995941539076,1289.9166666666667,445.8720047614578C1271.2272151923198,445.34469726475436,1252.5056446950261,446.35283746804447,1233.8333333333333,445.3523052192135C1215.1166504903556,444.3493953805333,1196.4546079337297,441.44475571352655,1177.75,439.849868894837C1159.0656969907168,438.256713417241,1140.3708647503058,436.76917969977416,1121.6666666666667,435.7866208024837C1102.9819555483493,434.80508558399913,1084.2793532092219,434.0754131461961,1065.5833333333333,433.9552632426946C1046.890463789448,433.8351335847903,1028.1939431625194,434.6501241089476,1009.5,435.06528645580005C990.8050542198584,435.48047106917386,972.1055825536936,435.70645396504125,953.4166666666667,436.4463186545037C934.7166871171587,437.1866213369058,916.0011723905421,437.87540888341226,897.3333333333333,439.5067817067552C878.6121311781739,441.1428179036948,859.977174349969,444.9398858757449,841.25,446.2590439189881C822.5880578426503,447.57360695126147,803.8535797266732,447.79785647672514,785.1666666666667,447.42738114204536C766.4646786815923,447.0566069411006,747.7822515199143,444.9884530294664,729.0833333333333,444.0316156115751C710.3933583527001,443.07523582412006,691.6954408630178,442.4176432083254,673,441.6872272162093C654.3065517617366,440.9568890743563,635.5892712864573,440.954875606691,616.9166666666666,439.64932056693635C598.2002798605844,438.3407043552065,579.4991537889574,436.224695268662,560.8333333333334,433.8358927761389C542.1100885089054,431.4397412642862,523.4869190589505,427.3660749287155,504.75,425.2861210135045C486.09764762781606,423.2155547041578,467.3411075779023,423.10253978517335,448.66666666666663,421.36352818993765C429.9521327037222,419.6207830274085,411.26875127681296,417.15773569083416,392.58333333333337,414.83528657472164C373.8798449206153,412.51059144273523,355.2294639947059,409.1148780686233,336.5,407.4212457259805C317.84031465363284,405.7339231942157,299.104333479975,405.81340638214584,280.4166666666667,404.67506957548113C261.7154347479473,403.53590646669255,243.03661155283538,401.63381509375563,224.33333333333331,400.5877746330778C205.64770599837945,399.54272135438947,186.94799770244478,398.77175316067866,168.25,398.39999767157803C149.55910611413339,398.02838342128,130.8597542613739,398.5893927708794,112.16666666666666,398.35685062490853C93.47086497844798,398.12427471559454,74.77897936662384,397.3064697213959,56.08333333333333,397.00445344111114C37.390090168884974,396.70247597764535,0,396.5447546666667,0,396.5447546666667Z"><title>01 Andalucía</title></path><path fill="rgb(193, 41, 73)" d="M0,372.14741200000003C0,372.14741200000003,37.397875268865356,370.8196527124582,56.08333333333333,369.7036041077778C74.78678146998159,368.5864809886334,93.58473057788751,368.3318084080347,112.16666666666666,365.4461546249085C130.97639480689966,362.52512621817453,149.60960767657855,357.0280428658009,168.25,352.1750310049114C186.9991290190832,347.2937096286101,205.6671803459896,341.7435878915565,224.33333333333331,336.2280852997445C243.05624153914607,330.69581259173475,261.5711434869731,323.4334040823903,280.4166666666667,319.0280535754812C298.9647634951362,314.6922297839962,317.98516645183895,314.4339567768764,336.5,309.8798017259805C355.38123453376585,305.23552180872235,373.7028292148271,295.90561322203587,392.58333333333337,291.25231190805493C411.0988423258493,286.6889675300068,430.0059232323816,285.4901483132645,448.66666666666663,282.0511428566044C467.3950569022697,278.5996707091247,486.30554028238504,276.133081476003,504.75,270.5727743468379C523.708558944907,264.8574857412634,541.8543826316205,253.43193284025983,560.8333333333334,247.9302941094722C579.2596003940067,242.58886790956706,598.1550359681747,240.0075989261839,616.9166666666666,237.69132190026963C635.5448770279852,235.39151670810756,654.29787033876,234.9336583004899,673,234.03541921620928C691.686771844361,233.13791774799805,710.3866593621907,232.59724986947845,729.0833333333333,232.30252227824178C747.7755493141588,232.00786496114858,766.4939808622224,231.3708298902064,785.1666666666667,232.26685980871204C803.8829715254183,233.16498283680482,822.6963057026871,234.3168592912989,841.25,237.69772125232143C860.0895652965118,241.13067474678547,878.5155955913114,249.04551920659102,897.3333333333333,252.8546190400885C915.9076535791869,256.614446131196,934.6926621285498,258.511509738347,953.4166666666667,260.5003666545037C972.0817368072512,262.48296358050214,990.7986120611112,263.5679468437206,1009.5,264.77953445580005C1028.1875112505147,265.9902230531226,1046.8881903558326,267.74120449048735,1065.5833333333333,267.7681512426947C1084.277079349111,267.7950959813533,1102.9926387374644,266.40609788915987,1121.6666666666667,264.94164346915034C1140.3816172066597,263.47397981659185,1159.0741159541137,261.2613350049762,1177.75,258.9649222281704C1196.4630788462214,256.6639359267855,1215.094286658285,252.59620078957883,1233.8333333333333,251.14580788588017C1252.4835971834884,249.7022867287239,1271.2254288682366,250.77671421386816,1289.9166666666667,250.25039676145775C1308.614319958772,249.72389865828876,1346,247.98689190757574,1346,247.98689190757574L1346,267.9780145742425C1346,267.9780145742425,1308.6134473307297,269.4771265831092,1289.9166666666667,269.9487420947911C1271.2245572746072,270.42023977633033,1252.499365794002,269.6236639036814,1233.8333333333333,270.8076318858802C1215.110303125112,271.9952151788474,1196.4588666468157,275.2924070187396,1177.75,277.07986756150376C1159.0699333896316,278.86457652504345,1140.3714678625731,280.38428754823815,1121.6666666666667,281.5269394691504C1102.982556073797,282.6683274280961,1084.275223751023,284.03943823097205,1065.5833333333333,283.934240576028C1046.8863334656512,283.8290141651826,1028.1928038844467,281.96490826957034,1009.5,280.8941784558001C990.803914419476,279.8232606654239,972.0880266667043,279.161367019653,953.4166666666667,277.5092373211703C934.6990231902789,275.85301224314225,915.9521033687806,274.0646234268695,897.3333333333333,270.9613137067551C878.5619689835963,267.8325701143781,860.0308257027614,261.7193606885854,841.25,258.7676185856547C822.6403691904826,255.84278281699235,803.8834748634268,254.21896544119235,785.1666666666667,253.27099447537867C766.4944794709596,252.32528347894754,747.7749476268489,252.77983881191898,729.0833333333333,253.07393961157507C710.3860570230961,253.36812949950462,691.6880123733387,254.1197739426504,673,255.03652054954264C654.299114620092,255.95389864601532,635.571781836082,256.6368443908968,616.9166666666666,258.577399233603C598.1825591740451,260.5261710684822,579.3285069723776,262.29581367732715,560.8333333333334,266.7238567761389C541.9307421879528,271.24944220207226,523.6392109019124,280.96673815087075,504.75,285.6671263468378C486.2425293208169,290.27252236731584,467.37370075721213,291.94387657293754,448.66666666666663,294.83494418993763C429.98477804577306,297.7221257150712,411.1397453424595,298.9778155664939,392.58333333333337,303.0032025747216C373.746655433693,307.0893868251086,355.34733012896305,315.35846888093175,336.5,319.2885950593138C317.95359807961273,323.1559703959456,298.9893332518788,322.865711077355,280.4166666666667,326.53810157548116C261.5971862228919,330.25929480555936,243.0554171954958,336.78271217018835,224.33333333333331,341.5701492997445C205.6663658096165,346.34349259193385,186.9798572602595,350.99459019084736,168.25,355.22438033824466C149.59070205886596,359.43823597483936,130.95007229704464,364.31436984696325,112.16666666666666,366.9083426249086C93.55952164541573,369.4779739585548,74.78497412812756,369.7560436288816,56.08333333333333,370.78808144111116C37.39607417544969,371.81932561211653,0,373.09939333333335,0,373.09939333333335Z"><title>02 Aragón</title></path><path fill="rgb(222, 77, 74)" d="M0,383.70635333333337C0,383.70635333333337,37.38939792979755,383.2342636451112,56.08333333333333,382.91013077444444C74.77828687413624,382.5859802503652,93.48684717949938,382.7169590788147,112.16666666666666,381.76148395824185C130.8757819774122,380.8045103526015,149.5525539196788,378.6213210433767,168.25,377.1673923382447C186.94144473513697,375.7139303026245,205.64534105427657,374.57299344999933,224.33333333333331,373.03916263307786C243.03423886303378,371.50427195153924,261.70696524234904,369.18688995618874,280.4166666666667,367.96057357548113C299.09590377554105,366.73625396041973,317.8208025270135,366.9078982745975,336.5,365.68270039264706C355.20974131975,364.4554990918445,373.87343088671054,361.81797986623144,392.58333333333337,360.5988012413883C411.26237073453984,359.3816338511699,429.9703875100299,359.0041762369072,448.66666666666663,358.36896018993764C467.3592771188863,357.7338687891556,486.06291811039625,357.63857268888034,504.75,356.7877516801712C523.4518186161594,355.93625970974495,542.130817555981,354.0567343775247,560.8333333333334,353.2604887761389C579.5197203600442,352.46492984423156,598.2232803459663,352.50679769788735,616.9166666666666,352.010375233603C635.6121694744727,351.5138965637855,654.3040170883156,350.72940994826536,673,350.28173121620927C691.6929064834733,349.8341261497896,710.3894376094479,349.2695381904676,729.0833333333333,349.3243969449084C747.7783265627686,349.3792589200685,766.472127836627,350.1905439415482,785.1666666666667,350.6110251420454C803.8610167274221,351.0315020967071,822.557157399427,351.32128909821455,841.25,351.8472719189881C859.9460468375237,352.3733449012008,878.6363151557101,353.3689458188573,897.3333333333333,353.76730970675516C916.0252054611603,354.1655639514799,934.7224308098288,354.04108427425905,953.4166666666667,354.2375253211703C972.1113197080273,354.43397075190165,990.8055785792989,354.706233772986,1009.5,354.94597445580007C1028.1944674683011,355.18571572913703,1046.8885094738162,355.57912972088576,1065.5833333333333,355.67597124269463C1084.2773983935047,355.7728088338281,1102.972259294024,355.59661342126145,1121.6666666666667,355.5270474691504C1140.3611481832072,355.4574812411338,1159.055754853883,355.4005506370692,1177.75,355.2585742281704C1196.4446437512706,355.1165947920015,1215.1389962148135,354.8884558009065,1233.8333333333333,354.67517321921355C1252.527885106167,354.4618881885422,1271.222533913568,354.2534216532758,1289.9166666666667,353.9788700947911C1308.6114228232457,353.70430938068506,1346,353.0278279075758,1346,353.0278279075758L1346,358.56426790757575C1346,358.56426790757575,1308.6114068808893,359.22455160224325,1289.9166666666667,359.4928634281244C1271.2225179732839,359.76116676434305,1252.5281090175354,360.0380666787523,1233.8333333333333,360.17412121921353C1215.139220105172,360.3101709385336,1196.4444530795022,360.2731202892298,1177.75,360.3091955615037C1159.0555641905971,360.34527080045115,1140.361116022853,360.3764559698564,1121.6666666666667,360.3905728024837C1102.9722271339588,360.40468962769285,1084.2775481288252,360.48600665634325,1065.5833333333333,360.393896576028C1046.8886592286515,360.30178423260577,1028.1944203486698,360.0279667410634,1009.5,359.8378917891334C990.8055314596571,359.6478163472159,972.1113647852566,359.3527001995173,953.4166666666667,359.2534453211703C934.7224758825994,359.1541931363905,916.0260549180442,359.498013025811,897.3333333333333,359.2423550400885C878.6371653938136,358.9866499190078,859.9455100063694,358.1298096954021,841.25,357.71907725232137C822.5566208745927,357.3083916237935,803.860438207979,357.15794963685045,785.1666666666667,356.7780344753787C766.4715492221922,356.39809196099884,747.7786063364072,355.52549226825903,729.0833333333333,355.4394756115751C710.3897173006535,355.35346657858594,691.6933513348743,355.88046656277976,673,356.2617658828759C654.3044621902584,356.6431098017906,635.6125329038153,357.4025460385027,616.9166666666666,357.7274805669363C598.2236435825243,358.0523656813139,579.5231416274859,357.7066202704069,560.8333333333334,358.2113741094723C542.1342481350403,358.71637848898763,523.4480365818998,360.1195883183162,504.75,360.7577783468378C486.05914493421426,361.3957232602132,467.35990048304734,361.5249102476061,448.66666666666663,362.04026418993766C429.9710112804824,362.5556848925504,411.26487140325236,362.7908978120093,392.58333333333337,363.85017057472163C373.8759467741496,364.91090898766754,355.2070071693404,367.3206786848056,336.5,368.40408572598045C317.8180846022029,369.4860395896523,299.0990027972066,369.27826095011966,280.4166666666667,370.3497482421479C261.7100824568022,371.4226262333195,243.03287545502226,373.48453997479066,224.33333333333331,374.84047729974446C205.64398101196952,376.1956757440078,186.94102098794522,377.1714650418945,168.25,378.48361633824464C149.55212958950952,379.79624847931063,130.8737518239469,381.8551485270618,112.16666666666666,382.71504262490856C93.48482883793739,383.5737761983538,74.77795052839174,383.3568143077051,56.08333333333333,383.6439547744444C37.389061633117706,383.93108993454643,0,384.43787199999997,0,384.43787199999997Z"><title>03 Asturias, Principado de</title></path><path fill="rgb(240, 112, 74)" d="M0,377.0065693333333C0,377.0065693333333,37.39302187794231,376.0736512982719,56.08333333333333,375.3053214411111C74.78191442497004,374.5366516319675,93.5166341188267,374.2585307676939,112.16666666666666,372.39503595824186C130.90594909175633,370.5226233797419,149.5564911377064,366.85895889700544,168.25,364.071885671578C186.9453802139214,361.2845334405314,205.6529880993994,358.6508618121249,224.33333333333331,355.6717519664112C243.04191965109396,352.6881382804402,261.6627422798095,348.2703296681196,280.4166666666667,346.1820895754812C299.0523786502975,344.10701237476724,317.86456380572275,345.2196472467238,336.5,343.1412723926471C355.2542072577404,341.049651227128,373.8318405782494,335.8147784923769,392.58333333333337,333.6312545747216C411.2214174345097,331.46093656613766,429.9727153867016,331.25504769626923,448.66666666666663,330.044057523271C467.3616043276352,328.83300345272204,486.08732547805715,328.23035631726725,504.75,326.3651170135045C523.4764318088812,324.49350549351095,542.1052089716178,320.6379528761892,560.8333333333334,318.8203861094722C579.4943388357196,317.0093332362867,598.2184247133983,316.43675688783793,616.9166666666666,315.46428990026965C635.6073166854205,314.4922177576127,654.3016152232748,313.5514747349538,673,312.98641254954265C691.6905074314684,312.42158841624024,710.3887719820802,312.08909510374923,729.0833333333333,312.0739716115751C747.7776608738934,312.0588483085487,766.4760013299722,312.3586030906248,785.1666666666667,312.8956504753787C803.8648932771416,313.4329151216499,822.578316666898,313.8909291066919,841.25,315.29754658565474C859.9673169481057,316.7076018393135,878.6152346724128,319.9828559865446,897.3333333333333,321.3545657067552C916.0042426780228,322.7228172742476,934.7197107325579,322.97231748381023,953.4166666666667,323.5272093211703C972.108600970338,324.0819521256209,990.8053845031964,324.3156075296519,1009.5,324.6837424558001C1028.1942733983456,325.05187064533516,1046.8904157322306,325.857002992461,1065.5833333333333,325.73600057602806C1084.279305120094,325.61497838933496,1102.9738405942094,324.63894589004946,1121.6666666666667,323.957206135817C1140.3627300437004,323.2753483149413,1159.0560973718043,322.44127916089764,1177.75,321.6451155615037C1196.4449863235136,320.84890580808946,1215.1343880958907,319.6115155351813,1233.8333333333333,319.1800772192135C1252.523281314975,318.74884649575114,1271.2230010460885,319.248558354963,1289.9166666666667,319.0559820947911C1308.6118900647841,318.8633897868851,1346,318.0244959075758,1346,318.0244959075758L1346,353.0278279075758C1346,353.0278279075758,1308.6114228232454,353.7043093806851,1289.9166666666667,353.9788700947911C1271.222533913568,354.25342165327584,1252.5278851061673,354.4618881885422,1233.8333333333333,354.67517321921355C1215.1389962148137,354.8884558009065,1196.4446437512706,355.1165947920014,1177.75,355.2585742281704C1159.055754853883,355.4005506370693,1140.3611481832072,355.4574812411338,1121.6666666666667,355.5270474691504C1102.972259294024,355.5966134212615,1084.2773983935044,355.7728088338281,1065.5833333333333,355.67597124269463C1046.8885094738162,355.5791297208857,1028.1944674683011,355.1857157291371,1009.5,354.94597445580007C990.8055785792989,354.70623377298597,972.1113197080273,354.43397075190165,953.4166666666667,354.2375253211703C934.7224308098288,354.04108427425905,916.0252054611603,354.1655639514799,897.3333333333333,353.76730970675516C878.6363151557101,353.36894581885724,859.9460468375237,352.3733449012008,841.25,351.8472719189881C822.557157399427,351.32128909821455,803.8610167274221,351.0315020967071,785.1666666666667,350.6110251420454C766.472127836627,350.19054394154824,747.7783265627686,349.3792589200685,729.0833333333333,349.3243969449084C710.3894376094478,349.26953819046753,691.692906483473,349.8341261497896,673,350.28173121620927C654.3040170883156,350.72940994826536,635.6121694744728,351.51389656378547,616.9166666666666,352.010375233603C598.2232803459664,352.50679769788735,579.5197203600442,352.46492984423156,560.8333333333334,353.2604887761389C542.130817555981,354.0567343775247,523.4518186161594,355.93625970974495,504.75,356.7877516801712C486.06291811039625,357.63857268888034,467.3592771188863,357.7338687891557,448.66666666666663,358.36896018993764C429.9703875100299,359.0041762369072,411.26237073453984,359.38163385116997,392.58333333333337,360.5988012413883C373.87343088671054,361.8179798662315,355.20974131975004,364.4554990918445,336.5,365.68270039264706C317.8208025270135,366.9078982745975,299.09590377554105,366.73625396041973,280.4166666666667,367.96057357548113C261.70696524234904,369.1868899561887,243.03423886303378,371.50427195153924,224.33333333333331,373.03916263307786C205.64534105427657,374.57299344999933,186.94144473513697,375.7139303026245,168.25,377.1673923382447C149.5525539196788,378.6213210433767,130.8757819774122,380.8045103526014,112.16666666666666,381.76148395824185C93.48684717949938,382.7169590788147,74.77828687413624,382.5859802503652,56.08333333333333,382.91013077444444C37.38939792979755,383.2342636451111,0,383.70635333333337,0,383.70635333333337Z"><title>05 Canarias</title></path><path fill="rgb(249, 152, 88)" d="M0,376.62473333333327C0,376.62473333333327,37.39335462257276,375.6762131171667,56.08333333333333,374.88514410777776C74.78224778264553,374.0936968857674,93.51999525216564,373.8072042028403,112.16666666666666,371.8765786249086C130.9093775170793,369.9360093853261,149.55797574496316,366.1522109409736,168.25,363.24281500491134C186.94686588777572,360.33266547328225,205.65334837642163,357.53523746115303,224.33333333333331,354.4178932997445C243.04228213976896,351.2957156072912,261.65856287379665,346.73310829955955,280.4166666666667,344.52261357548116C299.04830722542823,342.3270215470523,317.8700891699678,343.37112619307123,336.5,341.1557737259805C355.25988163195115,338.9249659440842,373.8268653591556,333.4732426511478,392.58333333333337,331.13821857472163C411.21656659100927,328.8185361943162,429.9725317531414,328.4895477965183,448.66666666666663,327.15219885660434C467.3614206625318,325.8148056285158,486.09426502979954,325.1676192834854,504.75,323.1139903468378C523.4834772114023,321.0518035208126,542.0993017475973,316.83360394965155,560.8333333333334,314.78702344280555C579.4885231386602,312.74905592725156,598.2157466197225,311.9350330595091,616.9166666666666,310.84197523360297C635.6046444685804,309.7496738743402,654.3010752140921,308.813239184354,673,308.23002454954263C691.689968393932,307.64708926228394,710.3887594226055,307.3600877774753,729.0833333333333,307.34269961157514C747.7776483150807,307.32531168650945,766.4763922414375,307.5792769368021,785.1666666666667,308.12567314204534C803.8652848543397,308.6723132709482,822.5821680028532,309.12476967123064,841.25,310.6225732523214C859.9712092963055,312.12465953264797,878.6122980276508,315.62694283167605,897.3333333333333,317.1367763734218C916.0013373516316,318.64233299270325,934.7186933573098,319.03788764130263,953.4166666666667,319.679971987837C972.1075849086992,320.3218140648901,990.8053045569488,320.5753640800721,1009.5,320.9890211224667C1028.1941934593171,321.4026670574802,1046.890616856171,322.28705294194674,1065.5833333333333,322.16188457602806C1084.2795063841747,322.03669306453395,1102.9743732891125,320.98633113356976,1121.6666666666667,320.23736880248373C1140.363263168503,319.4882340539246,1159.0566499843542,318.56949891094416,1177.75,317.66744489483705C1196.4455391295874,316.76528524228587,1215.1329071920409,315.32452373596476,1233.8333333333333,314.8246958858802C1252.521803727044,314.32518759084564,1271.2231984623547,314.8867179085048,1289.9166666666667,314.6677194281244C1308.6120875552065,314.4486980715783,1346,313.51053190757574,1346,313.51053190757574L1346,318.0244959075758C1346,318.0244959075758,1308.611890064784,318.8633897868851,1289.9166666666667,319.0559820947911C1271.2230010460885,319.248558354963,1252.523281314975,318.74884649575114,1233.8333333333333,319.1800772192135C1215.1343880958907,319.6115155351813,1196.4449863235136,320.84890580808946,1177.75,321.6451155615037C1159.0560973718043,322.44127916089764,1140.3627300437004,323.2753483149413,1121.6666666666667,323.957206135817C1102.9738405942094,324.63894589004946,1084.2793051200943,325.61497838933496,1065.5833333333333,325.73600057602806C1046.8904157322306,325.857002992461,1028.194273398345,325.05187064533516,1009.5,324.6837424558001C990.8053845031964,324.3156075296519,972.108600970338,324.08195212562094,953.4166666666667,323.5272093211703C934.7197107325579,322.9723174838102,916.0042426780228,322.7228172742476,897.3333333333333,321.3545657067552C878.6152346724126,319.9828559865446,859.9673169481055,316.7076018393135,841.25,315.29754658565474C822.5783166668979,313.8909291066919,803.8648932771415,313.4329151216499,785.1666666666667,312.8956504753787C766.4760013299722,312.3586030906248,747.7776608738933,312.0588483085487,729.0833333333333,312.0739716115751C710.3887719820801,312.08909510374923,691.6905074314684,312.42158841624024,673,312.98641254954265C654.3016152232748,313.5514747349538,635.6073166854205,314.4922177576127,616.9166666666666,315.46428990026965C598.2184247133983,316.43675688783793,579.4943388357196,317.00933323628675,560.8333333333334,318.8203861094722C542.1052089716178,320.6379528761892,523.4764318088812,324.49350549351095,504.75,326.3651170135045C486.08732547805715,328.23035631726725,467.3616043276352,328.83300345272204,448.66666666666663,330.044057523271C429.9727153867016,331.25504769626923,411.2214174345098,331.46093656613766,392.58333333333337,333.6312545747216C373.8318405782494,335.81477849237683,355.25420725774035,341.049651227128,336.5,343.1412723926471C317.86456380572275,345.2196472467238,299.0523786502975,344.1070123747673,280.4166666666667,346.1820895754812C261.6627422798095,348.2703296681196,243.04191965109396,352.6881382804402,224.33333333333331,355.6717519664112C205.6529880993994,358.6508618121249,186.94538021392137,361.2845334405314,168.25,364.071885671578C149.5564911377064,366.85895889700544,130.90594909175633,370.5226233797419,112.16666666666666,372.39503595824186C93.5166341188267,374.2585307676939,74.78191442497004,374.53665163196746,56.08333333333333,375.3053214411111C37.39302187794231,376.07365129827195,0,377.0065693333333,0,377.0065693333333Z"><title>06 Cantabria</title></path><path fill="rgb(253, 190, 112)" d="M0,374.79017333333337C0,374.79017333333337,37.394418847154256,373.80081894310615,56.08333333333333,372.9439321077778C74.78331428700918,372.0865378748519,93.53164670921112,371.78709317948267,112.16666666666666,369.6464719582419C130.92130091310523,367.49211053785217,149.5723494991692,363.4157192762154,168.25,360.018745671578C186.96129895233645,356.6156522982045,205.6576356360357,353.0247543896065,224.33333333333331,349.2442399664112C243.04660002462933,345.4561204659666,261.63503824745965,340.1024640073773,280.4166666666667,337.31056024214786C299.0255237614165,334.5443390695303,317.89983950969145,335.35267120326625,336.5,332.50470705931383C355.290669666201,329.62757309705154,373.8004645986427,323.1010794784725,392.58333333333337,320.05830124138834C411.19099543744215,317.04390604472565,429.9714144076582,316.18461128874713,448.66666666666663,314.27157352327106C467.36030343615045,312.3587010667423,486.14538494278366,311.5993832402017,504.75,308.58056234683784C523.5360342803567,305.532304018752,542.0457191271242,299.02087624974257,560.8333333333334,296.00438077613893C579.4364291217049,293.017511148909,598.2057768086496,291.8919946730062,616.9166666666666,290.50153390026964C635.5947233624801,289.113513055534,654.3008158784514,288.3521734802994,673,287.6642672162093C691.6897095691479,286.9767095022968,710.3880158382011,286.47283515480063,729.0833333333333,286.37435827824174C747.7769048901491,286.2758905983468,766.4812265437395,286.36489693292543,785.1666666666667,287.073247808712C803.8701328141203,287.78228203742873,822.6014391728935,288.59688922925136,841.25,290.62926658565476C859.9907829976612,292.6716945970621,878.5948213380483,297.2125637408127,897.3333333333333,299.32285904008853C915.9841218615071,301.42327509066376,934.7138576921176,302.27351460369,953.4166666666667,303.2834706545036C972.102761524565,304.29252413911615,990.8050932448606,304.7078656353077,1009.5,305.38155045580004C1028.1939821794763,306.0552019585231,1046.889300936136,307.34844854402115,1065.5833333333333,307.3254872426947C1084.278189861356,307.3025249291139,1102.9771984996105,306.1443154976883,1121.6666666666667,305.24360213581707C1140.3660926926923,304.34240886854957,1159.0605584680027,303.17634888859044,1177.75,301.91910622817045C1196.4494527180473,300.66119011316056,1215.1258656338362,298.4867920701996,1233.8333333333333,297.69764655254687C1252.5147907118624,296.9095982399533,1271.2236208762772,297.51253345252417,1289.9166666666667,297.18237276145777C1308.612510183861,296.85216265632454,1346,295.71639190757577,1346,295.71639190757577L1346,313.51053190757574C1346,313.51053190757574,1308.6120875552065,314.4486980715783,1289.9166666666667,314.6677194281244C1271.2231984623547,314.8867179085048,1252.521803727044,314.32518759084564,1233.8333333333333,314.8246958858802C1215.1329071920409,315.32452373596476,1196.4455391295874,316.7652852422858,1177.75,317.66744489483705C1159.0566499843542,318.5694989109442,1140.363263168503,319.4882340539246,1121.6666666666667,320.23736880248373C1102.9743732891125,320.98633113356976,1084.2795063841747,322.03669306453395,1065.5833333333333,322.16188457602806C1046.890616856171,322.28705294194674,1028.1941934593171,321.4026670574802,1009.5,320.9890211224667C990.8053045569488,320.5753640800721,972.1075849086992,320.3218140648901,953.4166666666667,319.679971987837C934.7186933573098,319.03788764130263,916.0013373516316,318.64233299270325,897.3333333333333,317.1367763734218C878.6122980276508,315.62694283167605,859.9712092963055,312.124659532648,841.25,310.6225732523214C822.5821680028532,309.12476967123064,803.8652848543397,308.6723132709482,785.1666666666667,308.12567314204534C766.4763922414375,307.5792769368021,747.7776483150807,307.32531168650945,729.0833333333333,307.34269961157514C710.3887594226055,307.3600877774753,691.689968393932,307.64708926228394,673,308.23002454954263C654.3010752140921,308.813239184354,635.6046444685803,309.7496738743402,616.9166666666666,310.84197523360297C598.2157466197224,311.9350330595091,579.4885231386602,312.74905592725156,560.8333333333334,314.78702344280555C542.0993017475973,316.83360394965155,523.4834772114023,321.0518035208126,504.75,323.1139903468378C486.09426502979954,325.1676192834854,467.3614206625318,325.8148056285158,448.66666666666663,327.15219885660434C429.9725317531414,328.4895477965183,411.21656659100915,328.8185361943162,392.58333333333337,331.13821857472163C373.8268653591556,333.4732426511478,355.25988163195115,338.92496594408414,336.5,341.1557737259805C317.8700891699678,343.3711261930713,299.04830722542823,342.3270215470523,280.4166666666667,344.52261357548116C261.65856287379665,346.7331082995595,243.0422821397689,351.29571560729124,224.33333333333331,354.4178932997445C205.6533483764217,357.53523746115303,186.9468658877757,360.3326654732823,168.25,363.24281500491134C149.55797574496316,366.15221094097353,130.9093775170793,369.9360093853261,112.16666666666666,371.8765786249086C93.51999525216563,373.8072042028403,74.78224778264553,374.0936968857674,56.08333333333333,374.88514410777776C37.39335462257276,375.67621311716664,0,376.62473333333327,0,376.62473333333327Z"><title>07 Castilla y León</title></path><path fill="rgb(254, 221, 141)" d="M0,373.5945546666667C0,373.5945546666667,37.39651565907926,372.6327101471879,56.08333333333333,371.6951694411111C74.78541701428374,370.7568628206369,93.55465547142305,370.45323803577173,112.16666666666666,367.96551995824194C130.94502445489616,365.455567667431,149.58850280894498,360.7201583275538,168.25,356.6351230049114C186.97762561370428,352.53561205153125,205.66746470978273,348.0519482201011,224.33333333333331,343.40531596641114C243.05652939485395,338.74441277105393,261.60145182704787,332.32866531988196,280.4166666666667,328.70814824214784C298.9933830409566,325.13352422352045,317.9426539353646,325.44598592865344,336.5,321.72326972598046C355.33568632386147,317.944716778696,373.75800127046665,310.01341324301967,392.58333333333337,306.07791057472156C411.1504560596318,302.19638748721655,429.98502150275743,300.9765495857886,448.66666666666663,298.1676068566043C467.3739455403856,295.35480988320546,486.22748840383633,293.6675063256116,504.75,289.2112730135045C523.6229445322956,284.6707308907081,541.9471236451998,275.37148284661345,560.8333333333334,271.0087434428055C579.3435715545669,266.73285394485146,598.1839707278637,264.96062630652625,616.9166666666666,263.09378990026966C635.5731701484826,261.23454657367694,654.2996481687344,260.63813135952034,673,259.8117152162092C691.6885445150618,258.98582086825303,710.3868682409104,258.365645290429,729.0833333333333,258.1358449449084C747.7757580030539,257.90609426067556,766.4936068584786,257.4875681373094,785.1666666666667,258.43263580871206C803.8825940450911,259.3798730632038,822.6331719415318,260.99423486472836,841.25,263.8244279189881C860.0233716262586,266.67841925493457,878.5663881848444,272.55799094774017,897.3333333333333,275.5375217067552C915.9563845968919,278.4942071783357,934.7024753935582,280.1003855725281,953.4166666666667,281.675459987837C972.0914473653226,283.2472174237152,990.803198126853,283.9680255320552,1009.5,284.9839611224667C1028.1920882042596,285.99964058436933,1046.8874157066502,287.70676547948096,1065.5833333333333,287.77043657602803C1084.276305059759,287.8340976399731,1102.981803276699,286.4879233289116,1121.6666666666667,285.36677546915035C1140.3707118474142,284.2444766443951,1159.0684663271577,282.7620227908398,1177.75,281.03812489483704C1196.4573909806516,279.31184093357274,1215.1125214489884,276.1558268328705,1233.8333333333333,275.0138945525469C1252.5015582626493,273.8751699718595,1271.2245019488296,274.64355359339856,1289.9166666666667,274.18157676145773C1308.6133919502824,273.7194872151383,1346,272.24142524090905,1346,272.24142524090905L1346,295.71639190757577C1346,295.71639190757577,1308.612510183861,296.85216265632454,1289.9166666666667,297.18237276145777C1271.2236208762772,297.51253345252417,1252.5147907118621,296.9095982399533,1233.8333333333333,297.69764655254687C1215.125865633836,298.4867920701996,1196.4494527180473,300.6611901131606,1177.75,301.91910622817045C1159.0605584680027,303.1763488885904,1140.3660926926923,304.34240886854957,1121.6666666666667,305.24360213581707C1102.9771984996105,306.1443154976883,1084.278189861356,307.3025249291139,1065.5833333333333,307.3254872426947C1046.889300936136,307.34844854402115,1028.1939821794763,306.0552019585231,1009.5,305.38155045580004C990.8050932448604,304.7078656353077,972.102761524565,304.2925241391162,953.4166666666667,303.2834706545036C934.7138576921176,302.27351460369,915.984121861507,301.4232750906637,897.3333333333333,299.32285904008853C878.5948213380481,297.2125637408127,859.9907829976612,292.6716945970621,841.25,290.62926658565476C822.6014391728935,288.59688922925136,803.8701328141204,287.78228203742873,785.1666666666667,287.073247808712C766.4812265437396,286.36489693292543,747.7769048901491,286.2758905983468,729.0833333333333,286.37435827824174C710.3880158382011,286.47283515480063,691.6897095691479,286.9767095022968,673,287.6642672162093C654.3008158784514,288.3521734802994,635.5947233624801,289.11351305553404,616.9166666666666,290.50153390026964C598.2057768086496,291.8919946730062,579.4364291217048,293.017511148909,560.8333333333334,296.00438077613893C542.0457191271242,299.02087624974257,523.5360342803567,305.532304018752,504.75,308.58056234683784C486.14538494278366,311.5993832402017,467.36030343615045,312.35870106674236,448.66666666666663,314.27157352327106C429.97141440765813,316.1846112887472,411.19099543744215,317.04390604472565,392.58333333333337,320.05830124138834C373.8004645986427,323.1010794784725,355.290669666201,329.62757309705154,336.5,332.50470705931383C317.89983950969145,335.35267120326637,299.0255237614165,334.5443390695303,280.4166666666667,337.31056024214786C261.63503824745965,340.10246400737725,243.04660002462933,345.4561204659666,224.33333333333331,349.2442399664112C205.6576356360357,353.0247543896065,186.96129895233645,356.6156522982045,168.25,360.018745671578C149.5723494991692,363.4157192762154,130.92130091310523,367.49211053785217,112.16666666666666,369.6464719582419C93.53164670921112,371.78709317948267,74.78331428700918,372.08653787485184,56.08333333333333,372.9439321077778C37.394418847154256,373.8008189431061,0,374.79017333333337,0,374.79017333333337Z"><title>08 Castilla - La Mancha</title></path><path fill="rgb(253, 243, 169)" d="M0,357.42215600000003C0,357.42215600000003,37.42361877103411,354.44800392583323,56.08333333333333,352.1194921077778C74.81276767281828,349.7822800856229,93.75523735507059,348.4582138799797,112.16666666666666,343.4123852915752C131.16237396521393,338.20642972333445,149.82550671902646,329.7022032297225,168.25,320.9495336715781C187.23094791927105,311.9325168937387,205.84244719275426,301.02791075550425,224.33333333333331,289.87062263307786C243.24060696859414,278.4620888313788,261.1724614373138,262.9447174266586,280.4166666666667,253.14308290881453C298.6192528283122,243.8719753359291,318.32590168089456,241.25650048427235,336.5,231.88115372598048C355.7800467012117,221.93528900322278,373.3629629022361,204.5879992732298,392.58333333333337,194.31862657472163C410.80508251274796,184.5828135105059,429.8473391502231,178.1756430746452,448.66666666666663,171.18196018993763C467.23947831749456,164.27988811271817,486.67120178178436,161.56393315313255,504.75,152.5752583468379C524.1536268191368,142.92788635702357,541.4891248338917,124.00895144459855,560.8333333333334,114.00377410947232C578.9573969622629,104.62967794804051,597.9346311180497,97.60907312843308,616.9166666666666,93.39213656693622C635.3401945977655,89.29927474895953,654.2886439683192,89.44100851975088,673,88.61280854954254C691.6775938316525,87.78610295809592,710.388877328754,88.47611309422327,729.0833333333333,88.41914627824171C747.7777662176718,88.36217953271347,766.5295258852505,86.8318152329698,785.1666666666667,88.27100780871201C803.9191261092179,89.7191054929629,822.8667284115406,91.90509460476476,841.25,97.13645191898803C860.2778203305699,102.55122951072767,878.4168144979167,114.21595644219067,897.3333333333333,120.69665370675516C915.8157782533759,127.0286395905176,934.5745252997598,132.44338242784957,953.4166666666667,135.76132798783698C971.9679390313496,139.02805391754592,990.788629536722,139.66512428042117,1009.5,140.6072437891334C1028.1775795039775,141.54766191942244,1046.9326168091159,142.56685744788618,1065.5833333333333,141.41622857602806C1084.3219186979854,140.2601787636603,1103.095152896787,137.45961017021443,1121.6666666666667,133.6469648024837C1140.4873627483819,129.78316346552447,1159.167494906404,124.15225795163582,1177.75,118.28777956150365C1196.5591307903717,112.35178005542427,1214.8480234800031,101.4351880774101,1233.8333333333333,98.1907025525468C1252.2539576385054,95.0427186966713,1271.2393797957345,99.25357103965035,1289.9166666666667,98.50304342812444C1308.6283319049642,97.75113435717543,1346,93.67394524090908,1346,93.67394524090908L1346,247.98689190757574C1346,247.98689190757574,1308.614319958772,249.72389865828876,1289.9166666666667,250.25039676145775C1271.2254288682366,250.77671421386816,1252.4835971834884,249.7022867287239,1233.8333333333333,251.14580788588017C1215.0942866582848,252.59620078957883,1196.4630788462214,256.6639359267855,1177.75,258.9649222281704C1159.0741159541137,261.2613350049762,1140.3816172066597,263.47397981659185,1121.6666666666667,264.94164346915034C1102.9926387374644,266.40609788915987,1084.277079349111,267.7950959813533,1065.5833333333333,267.7681512426947C1046.8881903558326,267.74120449048735,1028.1875112505147,265.99022305312263,1009.5,264.77953445580005C990.7986120611112,263.56794684372056,972.0817368072512,262.48296358050214,953.4166666666667,260.5003666545037C934.6926621285498,258.511509738347,915.9076535791869,256.614446131196,897.3333333333333,252.8546190400885C878.5155955913114,249.04551920659102,860.0895652965118,241.13067474678547,841.25,237.69772125232143C822.6963057026871,234.3168592912989,803.8829715254183,233.16498283680482,785.1666666666667,232.26685980871204C766.4939808622224,231.3708298902064,747.7755493141588,232.00786496114858,729.0833333333333,232.30252227824178C710.3866593621907,232.59724986947842,691.686771844361,233.13791774799805,673,234.03541921620928C654.29787033876,234.9336583004899,635.5448770279852,235.39151670810756,616.9166666666666,237.69132190026963C598.1550359681747,240.0075989261839,579.2596003940067,242.58886790956706,560.8333333333334,247.9302941094722C541.8543826316205,253.43193284025983,523.708558944907,264.85748574126336,504.75,270.5727743468379C486.30554028238504,276.13308147600304,467.3950569022697,278.5996707091247,448.66666666666663,282.0511428566044C430.0059232323816,285.4901483132645,411.0988423258493,286.6889675300068,392.58333333333337,291.25231190805493C373.70282921482715,295.90561322203587,355.38123453376585,305.23552180872235,336.5,309.8798017259805C317.985166451839,314.4339567768764,298.9647634951362,314.6922297839962,280.4166666666667,319.0280535754812C261.5711434869731,323.4334040823903,243.05624153914607,330.69581259173475,224.33333333333331,336.2280852997445C205.6671803459896,341.7435878915565,186.9991290190832,347.29370962861003,168.25,352.1750310049114C149.60960767657855,357.02804286580084,130.97639480689966,362.5251262181746,112.16666666666666,365.4461546249085C93.5847305778875,368.3318084080347,74.78678146998159,368.5864809886334,56.08333333333333,369.7036041077778C37.397875268865356,370.8196527124582,0,372.14741200000003,0,372.14741200000003Z"><title>09 Cataluña</title></path><path fill="rgb(245, 250, 174)" d="M0,411.96840533333335C0,411.96840533333335,37.40925714471054,413.764843403697,56.08333333333333,415.3745627744445C74.79823518999098,416.98780134839086,93.73070823509123,417.29880023469246,112.16666666666666,421.64350795824186C131.13473357741643,426.1136149566819,149.60704053308612,435.0695590239353,168.25,442.21516300491135C186.99650290772374,449.40045384055054,205.72549841810562,456.72512583268866,224.33333333333331,464.6458292997445C243.11602266237057,472.6409621653844,261.4232939648998,483.3580730355927,280.4166666666667,489.98781224214787C298.8301572294421,496.4151404597533,318.08949573232803,497.703090223415,336.5,504.1449030593139C355.496755727755,510.7918445612026,373.5412481086454,523.3414258569549,392.58333333333337,529.5884705747216C410.95421273215305,535.6153160464735,430.0020700749185,537.2124422382878,448.66666666666663,541.4307481899376C467.3911508117896,545.6625890723635,486.435671777594,548.2265479311392,504.75,554.9441343468378C523.8582300117728,561.9529192062297,541.7387024126043,576.0762559202682,560.8333333333334,583.1979541094722C579.1591675524108,590.0329152519773,598.0924740735504,594.2127540077763,616.9166666666666,597.357659233603C635.484867874088,600.45979669435,654.2894995295006,601.1616961064396,673,602.0667192162092C691.6784433894895,602.9701917314776,710.3964621565607,603.2149992187911,729.0833333333333,602.7899729449084C747.7853633373329,602.3646018888633,766.5199286790548,601.5034592971666,785.1666666666667,599.512283808712C803.9093095627691,597.5108671990955,822.7330298760027,595.2185855599497,841.25,590.7843945856547C860.1289248244047,586.2635276457506,878.5104733734585,577.5947637234241,897.3333333333333,572.4665177067551C915.902796496052,567.4073090796444,934.6259787793513,562.9463372887313,953.4166666666667,560.1435893211702C972.0168096637232,557.3692623090902,990.791608545781,556.5960567447734,1009.5,555.6563024558001C1028.1805389315823,554.7179472463612,1046.915495715924,553.6808102638109,1065.5833333333333,554.5042979093614C1084.3045369448257,555.3301396699261,1103.0460143185892,557.6494306369543,1121.6666666666667,560.6250314691504C1140.4360870282014,563.6244055943746,1159.131365373149,567.8900284442518,1177.75,572.4742395615037C1196.5215042564873,577.0960896716097,1214.9571340465839,585.5872905799159,1233.8333333333333,588.2745998858802C1252.3528273074755,590.9111268552366,1271.226924954036,588.2323236634246,1289.9166666666667,588.7354527614577C1308.6158185797253,589.2388351827165,1346,591.2951905742425,1346,591.2951905742425L1346,686.4774292409091C1346,686.4774292409091,1308.6427188351497,681.0874034439582,1289.9166666666667,679.9315274281245C1271.2536176179779,678.7795403150044,1252.2127860632565,683.0342146372392,1233.8333333333333,679.5331612192135C1214.8011257024712,675.9077662437625,1196.5782179979046,664.2268232307019,1177.75,657.8216835615037C1159.1856064550268,651.5062938871997,1140.500006657443,645.5439057725996,1121.6666666666667,641.3021128024837C1103.107108843772,637.1219832057064,1084.3185061150625,633.1152947628337,1065.5833333333333,632.446404576028C1046.9292653624152,631.7804100236893,1028.1660265822245,635.1337001935856,1009.5,637.2382877891334C990.7769638411964,639.3493031933616,971.9515484275331,641.0029012858885,953.4166666666667,645.102523987837C934.557018872883,649.2739797998398,915.5527645950124,654.1471470987507,897.3333333333333,662.2082910400885C878.110091515804,670.7135685695899,860.6069527568271,688.1890487736624,841.25,695.6031692523214C823.1357305397839,702.5413158629018,803.944094496541,704.3100170311513,785.1666666666667,706.6510731420453C766.553757854799,708.9716180170047,747.783952106172,709.0151463593455,729.0833333333333,709.6581889449085C710.3950550711115,710.300807187622,691.6746734621892,711.2388757496838,673,710.509477882876C654.2857005798303,709.7785323001591,635.3771529177112,709.2374440431248,616.9166666666666,705.2642459002697C597.9759328986069,701.1876854452432,578.8027236029596,695.5493741490226,560.8333333333334,686.0084194428056C541.2804153080555,675.6266812505596,524.2396965800616,654.5232824626121,504.75,643.7725103468377C486.7350134842953,633.8352076339147,467.3329070976236,629.7406960124842,448.66666666666663,622.4905148566044C429.94384697116766,615.2183576676226,410.70884690366773,610.0400981492908,392.58333333333337,600.2026505747216C373.2410063070536,589.7047892394914,355.90533952411096,570.6265184288662,336.5,560.4820323926472C318.422491621628,551.0316936811719,298.5184509866669,549.5555843669229,280.4166666666667,540.1906922421479C261.0433788252707,530.1679924060642,243.1931822338173,513.5742971543557,224.33333333333331,501.1845132997445C205.79863917174967,489.0083365082405,187.26465929939334,476.65086314022415,168.25,466.43002033824473C149.85523226795718,456.54238436182044,131.26175879327604,446.48418335501384,112.16666666666666,440.5966239582418C93.84122368017847,434.9463692572049,74.80873787588241,433.8805712008447,56.08333333333333,431.1711921077777C37.41964524254445,428.47074276913696,0,424.35860133333335,0,424.35860133333335Z"><title>10 Comunitat Valenciana</title></path><path fill="rgb(224, 243, 161)" d="M0,373.09939333333335C0,373.09939333333335,37.39607417544969,371.8193256121165,56.08333333333333,370.78808144111116C74.78497412812756,369.7560436288817,93.55952164541574,369.4779739585548,112.16666666666666,366.9083426249086C130.95007229704464,364.31436984696325,149.59070205886596,359.4382359748394,168.25,355.22438033824466C186.9798572602595,350.99459019084736,205.6663658096165,346.34349259193385,224.33333333333331,341.5701492997445C243.0554171954958,336.78271217018835,261.5971862228919,330.2592948055594,280.4166666666667,326.53810157548116C298.9893332518788,322.865711077355,317.9535980796127,323.1559703959456,336.5,319.2885950593138C355.347330128963,315.35846888093175,373.74665543369304,307.08938682510853,392.58333333333337,303.0032025747216C411.1397453424594,298.977815566494,429.98477804577306,297.7221257150712,448.66666666666663,294.83494418993763C467.37370075721213,291.94387657293754,486.2425293208169,290.27252236731584,504.75,285.6671263468378C523.6392109019124,280.96673815087075,541.9307421879528,271.24944220207226,560.8333333333334,266.7238567761389C579.3285069723776,262.29581367732715,598.182559174045,260.5261710684822,616.9166666666666,258.577399233603C635.571781836082,256.6368443908968,654.299114620092,255.95389864601532,673,255.03652054954264C691.6880123733386,254.1197739426504,710.386057023096,253.36812949950462,729.0833333333333,253.07393961157507C747.7749476268488,252.77983881191898,766.4944794709595,252.32528347894754,785.1666666666667,253.27099447537867C803.8834748634268,254.21896544119235,822.6403691904826,255.84278281699235,841.25,258.7676185856547C860.0308257027616,261.7193606885854,878.5619689835963,267.8325701143781,897.3333333333333,270.9613137067551C915.9521033687806,274.0646234268695,934.6990231902789,275.85301224314225,953.4166666666667,277.5092373211703C972.0880266667043,279.161367019653,990.8039144194759,279.8232606654239,1009.5,280.8941784558001C1028.1928038844467,281.96490826957034,1046.8863334656512,283.82901416518257,1065.5833333333333,283.934240576028C1084.275223751023,284.0394382309721,1102.982556073797,282.6683274280961,1121.6666666666667,281.5269394691504C1140.3714678625731,280.38428754823815,1159.0699333896318,278.86457652504345,1177.75,277.07986756150376C1196.4588666468155,275.2924070187396,1215.110303125112,271.99521517884745,1233.8333333333333,270.8076318858802C1252.4993657940022,269.62366390368146,1271.2245572746072,270.42023977633033,1289.9166666666667,269.9487420947911C1308.6134473307297,269.4771265831091,1346,267.9780145742425,1346,267.9780145742425L1346,272.24142524090905C1346,272.24142524090905,1308.6133919502822,273.7194872151383,1289.9166666666667,274.18157676145773C1271.2245019488298,274.64355359339856,1252.5015582626493,273.87516997185946,1233.8333333333333,275.0138945525469C1215.1125214489884,276.15582683287045,1196.4573909806516,279.31184093357274,1177.75,281.03812489483704C1159.0684663271577,282.7620227908398,1140.3707118474142,284.24447664439504,1121.6666666666667,285.36677546915035C1102.981803276699,286.4879233289117,1084.276305059759,287.8340976399731,1065.5833333333333,287.77043657602803C1046.8874157066502,287.70676547948096,1028.1920882042596,285.99964058436933,1009.5,284.9839611224667C990.803198126853,283.9680255320552,972.0914473653226,283.2472174237152,953.4166666666667,281.675459987837C934.7024753935582,280.1003855725281,915.9563845968919,278.4942071783357,897.3333333333333,275.5375217067552C878.5663881848444,272.55799094774017,860.0233716262588,266.67841925493457,841.25,263.8244279189881C822.6331719415318,260.99423486472836,803.8825940450911,259.3798730632038,785.1666666666667,258.43263580871206C766.4936068584786,257.4875681373094,747.7757580030539,257.90609426067556,729.0833333333333,258.1358449449084C710.3868682409102,258.365645290429,691.6885445150618,258.98582086825303,673,259.8117152162092C654.2996481687344,260.63813135952034,635.5731701484826,261.23454657367694,616.9166666666666,263.09378990026966C598.1839707278637,264.96062630652625,579.3435715545668,266.73285394485146,560.8333333333334,271.0087434428055C541.9471236451998,275.37148284661345,523.6229445322956,284.6707308907081,504.75,289.2112730135045C486.22748840383633,293.6675063256116,467.3739455403856,295.35480988320546,448.66666666666663,298.1676068566043C429.98502150275743,300.9765495857885,411.1504560596318,302.19638748721655,392.58333333333337,306.07791057472156C373.75800127046665,310.01341324301967,355.33568632386147,317.94471677869603,336.5,321.72326972598046C317.94265393536466,325.4459859286534,298.9933830409566,325.1335242235204,280.4166666666667,328.70814824214784C261.60145182704787,332.3286653198819,243.05652939485404,338.74441277105393,224.33333333333331,343.40531596641114C205.6674647097827,348.0519482201011,186.97762561370428,352.53561205153125,168.25,356.6351230049114C149.58850280894498,360.7201583275538,130.94502445489616,365.455567667431,112.16666666666666,367.96551995824194C93.55465547142306,370.45323803577173,74.78541701428374,370.7568628206369,56.08333333333333,371.6951694411111C37.39651565907926,372.63271014718794,0,373.5945546666667,0,373.5945546666667Z"><title>11 Extremadura</title></path><path fill="rgb(190, 229, 160)" d="M0,355.03273866666666C0,355.03273866666666,37.427552313023284,351.92288528630536,56.08333333333333,349.47600277444445C74.8167637226757,347.018935811826,93.77434425732511,345.5635048462947,112.16666666666666,340.3060092915752C131.18411961766276,334.8698184654962,149.8389511611051,326.0171821374677,168.25,316.9384963382447C187.24613846633045,307.57129656361747,205.85415640105916,296.2814332453434,224.33333333333331,284.7185666330779C243.25344082228463,272.87979913892696,261.1305200687424,256.7505728197295,280.4166666666667,246.61437890881456C298.5859554196763,237.06517046072915,318.3578073803538,234.4429663091911,336.5,224.7968643926472C355.8207797791196,214.52411430318628,373.3229988986438,196.49620136793757,392.58333333333337,185.90258257472166C410.77305107254614,175.89782713608525,429.85544440707366,169.4708286924906,448.66666666666663,162.23289885660432C467.24718015554726,155.08373804762633,486.7086364448418,152.06504728478728,504.75,142.69362901350453C524.2037847858328,132.58854168847094,541.454867006621,112.94491496152116,560.8333333333334,102.40819010947227C578.9311756603051,92.56778366037126,597.8979749513585,84.95329157584118,616.9166666666666,80.45351390026954C635.3079056443934,76.10219006491509,654.2859755400241,76.2117402972617,673,75.3061818828759C691.6749461169189,74.40251444188556,710.3889204732145,75.12348062703234,729.0833333333333,75.01569561157505C747.7778093623169,74.90791023190967,766.5329177787736,73.2114094512487,785.1666666666667,74.65947047537868C803.922605292828,76.11702707651784,822.903557222911,78.3143848018249,841.25,83.79439591898804C860.3204546904126,89.49066657933238,878.3922412339577,101.89703363183126,897.3333333333333,108.7762603734218C915.7934962654803,115.48081815872142,934.5565743120667,121.23768434711344,953.4166666666667,124.76355332117035C971.9511337467061,128.22854708681595,990.7863444746259,128.92216519975767,1009.5,129.9340357891334C1028.1753120083051,130.9438330969334,1046.9400955010633,132.0782349254283,1065.5833333333333,130.83729657602802C1084.3295516568892,129.58950359965652,1103.1090812188304,126.49817289700653,1121.6666666666667,122.41659413581704C1140.502098931572,118.2739053950669,1159.183867945394,112.30933814817084,1177.75,106.04912889483703C1196.5763792341445,99.70116836424694,1214.8065839878366,88.03543140326555,1233.8333333333333,84.52395855254676C1252.2175381626435,81.13107020530771,1271.2432551632658,85.47941891810895,1289.9166666666667,84.60625142812442C1308.6322391360325,83.73111249415281,1346,79.26682524090901,1346,79.26682524090901L1346,93.67394524090908C1346,93.67394524090908,1308.6283319049642,97.75113435717543,1289.9166666666667,98.50304342812444C1271.2393797957345,99.25357103965035,1252.2539576385054,95.0427186966713,1233.8333333333333,98.1907025525468C1214.8480234800031,101.4351880774101,1196.5591307903715,112.35178005542427,1177.75,118.28777956150365C1159.1674949064043,124.15225795163582,1140.4873627483819,129.78316346552447,1121.6666666666667,133.6469648024837C1103.095152896787,137.45961017021443,1084.3219186979852,140.26017876366026,1065.5833333333333,141.41622857602806C1046.9326168091159,142.56685744788618,1028.1775795039775,141.5476619194224,1009.5,140.6072437891334C990.788629536722,139.66512428042114,971.9679390313496,139.02805391754592,953.4166666666667,135.76132798783698C934.5745252997598,132.44338242784957,915.8157782533759,127.0286395905176,897.3333333333333,120.69665370675516C878.4168144979167,114.21595644219067,860.2778203305699,102.55122951072767,841.25,97.13645191898803C822.8667284115404,91.90509460476476,803.9191261092179,89.7191054929629,785.1666666666667,88.27100780871201C766.5295258852506,86.8318152329698,747.7777662176718,88.36217953271347,729.0833333333333,88.41914627824171C710.388877328754,88.47611309422327,691.6775938316524,87.78610295809591,673,88.61280854954254C654.2886439683192,89.4410085197509,635.3401945977655,89.29927474895956,616.9166666666666,93.39213656693622C597.9346311180497,97.60907312843308,578.9573969622628,104.62967794804051,560.8333333333334,114.00377410947232C541.4891248338915,124.00895144459855,524.1536268191368,142.92788635702357,504.75,152.5752583468379C486.6712017817842,161.56393315313255,467.23947831749456,164.27988811271814,448.66666666666663,171.18196018993763C429.8473391502231,178.1756430746452,410.80508251274796,184.5828135105059,392.58333333333337,194.31862657472163C373.36296290223606,204.5879992732298,355.7800467012117,221.93528900322278,336.5,231.88115372598048C318.3259016808945,241.25650048427235,298.6192528283122,243.8719753359291,280.4166666666667,253.14308290881453C261.1724614373138,262.9447174266586,243.24060696859414,278.46208883137876,224.33333333333331,289.87062263307786C205.84244719275426,301.02791075550425,187.23094791927105,311.9325168937387,168.25,320.9495336715781C149.82550671902646,329.70220322972256,131.16237396521393,338.20642972333445,112.16666666666666,343.4123852915752C93.75523735507059,348.4582138799797,74.81276767281828,349.78228008562286,56.08333333333333,352.1194921077778C37.42361877103411,354.4480039258332,0,357.42215600000003,0,357.42215600000003Z"><title>12 Galicia</title></path><path fill="rgb(148, 212, 164)" d="M0,397.9905626666666C0,397.9905626666666,37.39239392166215,398.50542241806164,56.08333333333333,399.09587610777777C74.78128544116692,399.6865513311597,93.47738474707693,400.52932913304926,112.16666666666666,401.5344492915752C130.86627934485702,402.540125044145,149.56907039504588,403.59949119438664,168.25,405.12890167157803C186.95799847861483,406.6605282814706,205.66022233064376,408.4959018311346,224.33333333333331,410.7204426330778C243.0492090460958,412.9500780249063,261.6965431712423,416.3566696274942,280.4166666666667,418.49639224214786C299.0855723823644,420.6302606303813,317.87921068147006,420.84081659166947,336.5,423.5486297259805C355.26927896523256,426.27803604889226,373.86102647278386,431.3941091551523,392.58333333333337,434.857227908055C411.2500804835076,438.3100696221111,429.92869137070636,441.8156258270996,448.66666666666663,444.3019588566043C467.3179819742637,446.776793013472,486.1284296148049,446.9595673007915,504.75,449.7590543468378C523.5184728213017,452.58062607523937,542.0799063813383,458.1192721861018,560.8333333333334,461.21172610947224C579.469530378764,464.28484873486616,598.1908759461905,466.64559661916167,616.9166666666666,468.2828952336029C635.5799736768747,469.91473055446295,654.3036087909356,470.20454070920516,673,471.0335138828759C691.6924984904001,471.86231445856725,710.3923304648719,472.37006230836016,729.0833333333333,473.2563262782417C747.7812218899525,474.1429167441046,766.4682686262412,476.18049447858346,785.1666666666667,476.3523984753787C803.8571608568095,476.52422980801043,822.6063161070541,476.0545525492359,841.25,474.2897132523214C859.995762369142,472.5152110525603,878.5961906876225,467.7939923089122,897.3333333333333,465.6988870400885C915.9854661384633,463.61328719950797,934.7142556784386,462.7626978851443,953.4166666666667,461.72672532117036C972.1031581238328,460.69163457919376,990.8034329607332,460.1034857596956,1009.5,459.48422645580007C1028.1923228131948,458.8651077272561,1046.891331188641,457.8675773731797,1065.5833333333333,458.011416576028C1084.2802213544755,458.1552933768054,1102.98762724923,459.10536684987943,1121.6666666666667,460.34837013581705C1140.3765670837008,461.59342707789017,1159.0704944776649,463.4878711052267,1177.75,465.4802008948371C1196.4594312710915,467.47572252272454,1215.1045268081864,471.08837900887397,1233.8333333333333,472.3146345525469C1252.493666496405,473.53640685059895,1271.2295299966577,472.22829625583483,1289.9166666666667,472.8473167614578C1308.6184303300608,473.4668217933622,1346,476.03228524090906,1346,476.03228524090906L1346,591.2951905742425C1346,591.2951905742425,1308.6158185797253,589.2388351827165,1289.9166666666667,588.7354527614577C1271.226924954036,588.2323236634246,1252.3528273074755,590.9111268552366,1233.8333333333333,588.2745998858802C1214.9571340465839,585.5872905799159,1196.5215042564873,577.0960896716095,1177.75,572.4742395615037C1159.131365373149,567.8900284442517,1140.4360870282014,563.6244055943746,1121.6666666666667,560.6250314691504C1103.0460143185892,557.6494306369543,1084.3045369448257,555.3301396699261,1065.5833333333333,554.5042979093614C1046.915495715924,553.6808102638109,1028.1805389315823,554.7179472463612,1009.5,555.6563024558001C990.791608545781,556.5960567447734,972.0168096637232,557.3692623090903,953.4166666666667,560.1435893211702C934.6259787793513,562.9463372887312,915.902796496052,567.4073090796444,897.3333333333333,572.4665177067551C878.5104733734586,577.5947637234241,860.1289248244049,586.2635276457506,841.25,590.7843945856547C822.7330298760027,595.2185855599497,803.9093095627691,597.5108671990955,785.1666666666667,599.512283808712C766.5199286790547,601.5034592971666,747.7853633373329,602.3646018888633,729.0833333333333,602.7899729449084C710.3964621565607,603.2149992187911,691.6784433894895,602.9701917314776,673,602.0667192162092C654.2894995295006,601.1616961064396,635.484867874088,600.45979669435,616.9166666666666,597.357659233603C598.0924740735504,594.2127540077763,579.1591675524108,590.0329152519773,560.8333333333334,583.1979541094722C541.7387024126043,576.0762559202682,523.8582300117728,561.9529192062297,504.75,554.9441343468378C486.435671777594,548.2265479311392,467.3911508117896,545.6625890723635,448.66666666666663,541.4307481899376C430.0020700749185,537.2124422382878,410.9542127321531,535.6153160464735,392.58333333333337,529.5884705747216C373.5412481086454,523.3414258569549,355.496755727755,510.7918445612026,336.5,504.1449030593139C318.08949573232803,497.703090223415,298.8301572294421,496.4151404597533,280.4166666666667,489.98781224214787C261.4232939648998,483.3580730355927,243.11602266237057,472.6409621653844,224.33333333333331,464.6458292997445C205.72549841810562,456.72512583268866,186.99650290772374,449.40045384055054,168.25,442.21516300491135C149.60704053308612,435.0695590239353,131.13473357741643,426.1136149566819,112.16666666666666,421.64350795824186C93.73070823509123,417.29880023469246,74.79823518999098,416.98780134839086,56.08333333333333,415.3745627744445C37.40925714471054,413.764843403697,0,411.96840533333335,0,411.96840533333335Z"><title>13 Madrid, Comunidad de</title></path><path fill="rgb(105, 189, 169)" d="M0,396.5447546666667C0,396.5447546666667,37.390090168884974,396.70247597764535,56.08333333333333,397.00445344111114C74.77897936662384,397.3064697213959,93.47086497844798,398.12427471559454,112.16666666666666,398.35685062490853C130.8597542613739,398.5893927708794,149.55910611413339,398.02838342128,168.25,398.39999767157803C186.94799770244478,398.77175316067866,205.64770599837948,399.54272135438947,224.33333333333331,400.5877746330778C243.03661155283538,401.63381509375563,261.7154347479473,403.53590646669255,280.4166666666667,404.67506957548113C299.104333479975,405.81340638214596,317.84031465363284,405.7339231942157,336.5,407.4212457259805C355.2294639947059,409.1148780686233,373.8798449206153,412.51059144273523,392.58333333333337,414.83528657472164C411.26875127681296,417.15773569083416,429.9521327037222,419.6207830274085,448.66666666666663,421.36352818993765C467.3411075779022,423.10253978517335,486.09764762781606,423.2155547041578,504.75,425.2861210135045C523.4869190589505,427.3660749287155,542.1100885089054,431.4397412642862,560.8333333333334,433.8358927761389C579.4991537889574,436.224695268662,598.2002798605844,438.3407043552065,616.9166666666666,439.64932056693635C635.5892712864573,440.9548756066911,654.3065517617366,440.9568890743563,673,441.6872272162093C691.6954408630178,442.4176432083254,710.3933583527001,443.07523582411994,729.0833333333333,444.0316156115751C747.7822515199143,444.9884530294665,766.4646786815923,447.0566069411006,785.1666666666667,447.42738114204536C803.8535797266732,447.79785647672514,822.5880578426504,447.57360695126147,841.25,446.2590439189881C859.9771743499691,444.9398858757449,878.612131178174,441.1428179036948,897.3333333333333,439.5067817067552C916.001172390542,437.87540888341226,934.7166871171587,437.1866213369058,953.4166666666667,436.4463186545037C972.1055825536936,435.70645396504113,990.8050542198584,435.48047106917386,1009.5,435.06528645580005C1028.1939431625194,434.6501241089476,1046.890463789448,433.8351335847903,1065.5833333333333,433.9552632426946C1084.2793532092219,434.0754131461961,1102.9819555483493,434.8050855839992,1121.6666666666667,435.7866208024837C1140.3708647503058,436.76917969977416,1159.0656969907166,438.256713417241,1177.75,439.849868894837C1196.4546079337297,441.44475571352655,1215.1166504903556,444.3493953805334,1233.8333333333333,445.3523052192135C1252.5056446950261,446.35283746804447,1271.2272151923198,445.34469726475436,1289.9166666666667,445.8720047614578C1308.6161094210656,446.3995941539076,1346,448.5181319075757,1346,448.5181319075757L1346,476.03228524090906C1346,476.03228524090906,1308.6184303300608,473.4668217933622,1289.9166666666667,472.8473167614578C1271.2295299966577,472.22829625583483,1252.493666496405,473.53640685059895,1233.8333333333333,472.3146345525469C1215.1045268081864,471.08837900887397,1196.4594312710915,467.47572252272454,1177.75,465.4802008948371C1159.0704944776649,463.4878711052268,1140.3765670837008,461.5934270778902,1121.6666666666667,460.34837013581705C1102.98762724923,459.10536684987943,1084.2802213544755,458.1552933768055,1065.5833333333333,458.011416576028C1046.891331188641,457.8675773731797,1028.1923228131948,458.865107727256,1009.5,459.48422645580007C990.8034329607332,460.1034857596956,972.1031581238328,460.69163457919376,953.4166666666667,461.72672532117036C934.7142556784386,462.7626978851443,915.9854661384635,463.61328719950785,897.3333333333333,465.6988870400885C878.5961906876228,467.79399230891227,859.995762369142,472.5152110525603,841.25,474.2897132523214C822.6063161070543,476.0545525492359,803.8571608568095,476.52422980801043,785.1666666666667,476.3523984753787C766.4682686262411,476.18049447858346,747.7812218899525,474.1429167441046,729.0833333333333,473.2563262782417C710.3923304648719,472.37006230836016,691.6924984904002,471.86231445856725,673,471.0335138828759C654.3036087909356,470.20454070920516,635.5799736768747,469.91473055446295,616.9166666666666,468.2828952336029C598.1908759461905,466.64559661916167,579.469530378764,464.28484873486616,560.8333333333334,461.21172610947224C542.0799063813383,458.1192721861018,523.5184728213017,452.58062607523937,504.75,449.7590543468378C486.1284296148049,446.9595673007915,467.3179819742638,446.776793013472,448.66666666666663,444.3019588566043C429.9286913707064,441.8156258270997,411.2500804835076,438.3100696221111,392.58333333333337,434.857227908055C373.86102647278386,431.3941091551523,355.26927896523256,426.27803604889226,336.5,423.5486297259805C317.87921068147006,420.84081659166947,299.0855723823644,420.6302606303813,280.4166666666667,418.49639224214786C261.6965431712423,416.35666962749434,243.0492090460958,412.9500780249063,224.33333333333331,410.7204426330778C205.66022233064376,408.4959018311346,186.95799847861485,406.6605282814705,168.25,405.12890167157803C149.56907039504588,403.59949119438653,130.86627934485702,402.540125044145,112.16666666666666,401.5344492915752C93.47738474707694,400.52932913304926,74.78128544116692,399.6865513311596,56.08333333333333,399.09587610777777C37.39239392166215,398.50542241806164,0,397.9905626666666,0,397.9905626666666Z"><title>14 Murcia, Región de</title></path><path fill="rgb(72, 155, 179)" d="M0,354.509428C0,354.509428,37.43113122061169,351.29592025478263,56.08333333333333,348.7515214411111C74.82040540031899,346.1955452807197,93.80452189910359,344.6954892823881,112.16666666666666,339.19119862490857C131.21885552464147,333.4800583162481,149.84990051511184,324.0716568698525,168.25,314.57286033824465C187.25857888977876,304.7599447408417,205.84333247729006,292.9524497214649,224.33333333333331,280.9953319664112C243.24157493102425,268.7677461980362,261.10568451433016,252.3171197217924,280.4166666666667,241.91380424214788C298.5664885202052,232.13603524250848,318.37090699698894,229.3847742679038,336.5,219.53390972598044C355.83768800623534,209.0263269653999,373.31116589169704,190.6978499890418,392.58333333333337,179.85023324138834C410.76366080862044,169.61717432904814,429.8360924561294,162.8711959837626,448.66666666666663,155.505693523271C467.22883440935647,148.2451771602419,486.7447637724141,145.41975127050227,504.75,135.90854768017118C524.2530929339345,125.60610647967212,541.4267726436414,105.36322947939554,560.8333333333334,94.51606344280563C578.9099225552858,84.41227597623514,597.8779710582073,76.50961782011221,616.9166666666666,71.88410456693622C635.2904842971238,67.42012558912448,654.2852966490466,67.57195104808187,673,66.64674321620927C691.6742729761836,65.72353416030876,710.3888235744557,66.40070619727145,729.0833333333333,66.32822894490837C747.7777124642577,66.25575219898037,766.5357708273572,64.68976512368658,785.1666666666667,66.21187980871207C803.9255357289187,67.7444497033856,822.9302454638107,69.89865793123289,841.25,75.55683325232138C860.3518074844987,81.45655071215232,878.3691368077152,94.42335233786203,897.3333333333333,101.55086037342184C915.7727484121313,108.48113442788103,934.5473890896752,114.3605558628214,953.4166666666667,117.98186932117032C971.9425829100022,121.53728629707201,990.7853705032529,122.24490144568288,1009.5,123.28181445580002C1028.1743461954013,124.31649550726347,1046.9462979944574,125.52476878770044,1065.5833333333333,124.20606590936136C1084.3359008549746,122.87918830692136,1103.1175460802729,119.55439552631557,1121.6666666666667,115.28437813581708C1140.5110990688686,110.94637980879676,1159.1907318273263,104.75275921761029,1177.75,98.25722356150365C1196.583647134638,91.66565834678794,1214.7828748133077,79.60153498483284,1233.8333333333333,75.9498172192135C1252.1969714897468,72.42975371907838,1271.2452351129878,76.86763112974657,1289.9166666666667,75.93807676145776C1308.634237878399,75.00622533733949,1346,70.35185857424237,1346,70.35185857424237L1346,79.26682524090901C1346,79.26682524090901,1308.6322391360325,83.73111249415282,1289.9166666666667,84.60625142812442C1271.2432551632658,85.47941891810895,1252.2175381626435,81.13107020530771,1233.8333333333333,84.52395855254676C1214.8065839878366,88.03543140326555,1196.5763792341445,99.70116836424694,1177.75,106.04912889483703C1159.183867945394,112.30933814817084,1140.5020989315717,118.2739053950669,1121.6666666666667,122.41659413581704C1103.1090812188306,126.49817289700653,1084.3295516568892,129.58950359965652,1065.5833333333333,130.83729657602802C1046.9400955010633,132.0782349254283,1028.175312008305,130.9438330969334,1009.5,129.9340357891334C990.786344474626,128.92216519975764,971.9511337467061,128.22854708681595,953.4166666666667,124.76355332117035C934.5565743120667,121.23768434711344,915.7934962654803,115.48081815872143,897.3333333333333,108.7762603734218C878.3922412339577,101.89703363183129,860.3204546904126,89.49066657933238,841.25,83.79439591898804C822.903557222911,78.3143848018249,803.922605292828,76.11702707651784,785.1666666666667,74.65947047537868C766.5329177787737,73.21140945124868,747.7778093623169,74.90791023190967,729.0833333333333,75.01569561157505C710.3889204732145,75.12348062703234,691.674946116919,74.40251444188554,673,75.3061818828759C654.285975540024,76.21174029726168,635.3079056443934,76.10219006491509,616.9166666666666,80.45351390026954C597.8979749513585,84.95329157584118,578.931175660305,92.56778366037126,560.8333333333334,102.40819010947227C541.454867006621,112.94491496152116,524.2037847858328,132.58854168847094,504.75,142.69362901350453C486.7086364448418,152.06504728478728,467.24718015554726,155.08373804762633,448.66666666666663,162.23289885660432C429.85544440707366,169.4708286924906,410.77305107254614,175.89782713608525,392.58333333333337,185.90258257472166C373.32299889864385,196.49620136793757,355.8207797791196,214.52411430318628,336.5,224.7968643926472C318.3578073803538,234.4429663091911,298.5859554196763,237.06517046072915,280.4166666666667,246.61437890881456C261.1305200687424,256.7505728197295,243.25344082228463,272.87979913892696,224.33333333333331,284.7185666330779C205.85415640105916,296.2814332453434,187.24613846633045,307.5712965636174,168.25,316.9384963382447C149.8389511611051,326.0171821374677,131.18411961766276,334.8698184654962,112.16666666666666,340.3060092915752C93.77434425732511,345.56350484629473,74.8167637226757,347.018935811826,56.08333333333333,349.47600277444445C37.427552313023284,351.92288528630536,0,355.03273866666666,0,355.03273866666666Z"><title>15 Navarra, Comunidad Foral de</title></path><path fill="rgb(69, 117, 177)" d="M0,352.66540399999997C0,352.66540399999997,37.43687950456654,349.3767584458675,56.08333333333333,346.7139707744445C74.82626629739924,344.0374054992806,93.81953679880031,342.3315076572203,112.16666666666666,336.62621195824187C131.23631929700326,330.6962377379457,149.87384709239603,321.0661047080575,168.25,311.2437163382447C187.28600484368795,301.0686250922979,205.8455207554079,288.7265400256322,224.33333333333331,276.3351612997445C243.2439692228821,263.66038702522866,261.0871665798534,246.78156230386378,280.4166666666667,235.9404429088145C298.5520927630319,225.76903036799484,318.39765696716745,222.6406500212921,336.5,212.35510172598043C355.8725546913375,201.34783341160121,373.2907362641233,182.40885135881874,392.58333333333337,171.00576124138837C410.7475482743198,160.26961311465388,429.8303715528376,153.01619391264208,448.66666666666663,145.12659752327093C467.2234392109999,137.35407937257222,486.78645034493985,134.03334649378877,504.75,123.95430234683786C524.3111231427355,112.97888671321132,541.3858587552108,91.85418678397744,560.8333333333334,80.27917410947228C578.8793680695976,69.53828947904309,597.824557867294,60.83337825962926,616.9166666666666,55.763151233602905C635.244641617286,50.89585265996299,654.2794470842732,50.91251238220651,673,49.7366378828759C691.6684810144939,48.564034121384445,710.388727685474,49.029597336036005,729.0833333333333,48.70383427824172C747.777616579923,48.378076838454334,766.5401245578481,46.33543997940482,785.1666666666667,47.78207447537869C803.9300145499428,49.23933402196166,822.9526513466701,51.64355436831683,841.25,57.49309058565474C860.3784324429415,63.60831856080317,878.348115978236,77.04790349299589,897.3333333333333,84.4045190400885C915.7540396125187,91.54239118910017,934.5358131714081,97.60231237043348,953.4166666666667,101.26019465450369C971.9318525511097,104.84723432143284,990.7864120817106,105.43372907383906,1009.5,106.36491445580009C1028.175379063959,107.29419857079034,1046.9605895644838,108.40905938085825,1065.5833333333333,106.8510312426947C1084.3505956122037,105.28091230266575,1103.1385608722476,101.57707507801916,1121.6666666666667,96.90007280248375C1140.53358892892,92.13754395404162,1159.2131300039937,85.44210974783256,1177.75,78.38185289483702C1196.6075174302362,71.19946899205358,1214.7192517589797,58.10423235733147,1233.8333333333333,54.079241219213486C1252.1427295884753,50.2236985197349,1271.2467638291682,54.74991957004362,1289.9166666666667,53.73237809479113C1308.6357822690393,52.712154440107525,1346,47.95166257424238,1346,47.95166257424238L1346,70.35185857424237C1346,70.35185857424237,1308.634237878399,75.00622533733949,1289.9166666666667,75.93807676145776C1271.2452351129878,76.86763112974657,1252.1969714897468,72.42975371907838,1233.8333333333333,75.9498172192135C1214.7828748133077,79.60153498483284,1196.583647134638,91.66565834678794,1177.75,98.25722356150365C1159.1907318273263,104.75275921761029,1140.5110990688686,110.94637980879676,1121.6666666666667,115.28437813581708C1103.1175460802729,119.55439552631557,1084.3359008549746,122.87918830692136,1065.5833333333333,124.20606590936136C1046.9462979944574,125.52476878770044,1028.1743461954013,124.31649550726347,1009.5,123.28181445580002C990.7853705032529,122.24490144568288,971.9425829100022,121.53728629707201,953.4166666666667,117.98186932117032C934.5473890896752,114.3605558628214,915.7727484121313,108.48113442788103,897.3333333333333,101.55086037342184C878.3691368077152,94.42335233786203,860.3518074844987,81.45655071215232,841.25,75.55683325232138C822.9302454638109,69.89865793123289,803.9255357289187,67.74444970338558,785.1666666666667,66.21187980871207C766.5357708273572,64.68976512368657,747.7777124642577,66.25575219898037,729.0833333333333,66.32822894490837C710.3888235744557,66.40070619727145,691.6742729761836,65.72353416030876,673,66.64674321620927C654.2852966490466,67.57195104808187,635.2904842971238,67.42012558912448,616.9166666666666,71.88410456693622C597.8779710582073,76.50961782011221,578.9099225552858,84.41227597623514,560.8333333333334,94.51606344280563C541.4267726436414,105.36322947939554,524.2530929339345,125.60610647967212,504.75,135.90854768017118C486.7447637724141,145.41975127050227,467.22883440935647,148.2451771602419,448.66666666666663,155.505693523271C429.8360924561294,162.8711959837626,410.76366080862044,169.61717432904814,392.58333333333337,179.85023324138834C373.31116589169704,190.6978499890418,355.8376880062354,209.0263269653999,336.5,219.53390972598044C318.37090699698894,229.3847742679038,298.56648852020516,232.13603524250848,280.4166666666667,241.91380424214788C261.10568451433016,252.3171197217924,243.24157493102425,268.7677461980362,224.33333333333331,280.9953319664112C205.84333247729006,292.9524497214649,187.2585788897788,304.7599447408417,168.25,314.57286033824465C149.84990051511184,324.0716568698526,131.21885552464147,333.4800583162482,112.16666666666666,339.19119862490857C93.80452189910359,344.6954892823881,74.82040540031899,346.19554528071967,56.08333333333333,348.7515214411111C37.43113122061169,351.29592025478263,0,354.509428,0,354.509428Z"><title>16 País Vasco</title></path><path fill="rgb(94, 79, 162)" d="M0,424.35860133333335C0,424.35860133333335,37.41964524254445,428.47074276913696,56.08333333333333,431.1711921077777C74.80873787588241,433.8805712008447,93.84122368017847,434.9463692572049,112.16666666666666,440.5966239582418C131.26175879327604,446.48418335501384,149.85523226795718,456.54238436182044,168.25,466.43002033824473C187.26465929939332,476.65086314022415,205.79863917174967,489.0083365082405,224.33333333333331,501.1845132997445C243.1931822338173,513.5742971543557,261.0433788252707,530.1679924060642,280.4166666666667,540.1906922421479C298.51845098666695,549.5555843669229,318.422491621628,551.0316936811719,336.5,560.4820323926472C355.90533952411096,570.6265184288662,373.2410063070536,589.7047892394914,392.58333333333337,600.2026505747216C410.70884690366773,610.0400981492909,429.94384697116766,615.2183576676226,448.66666666666663,622.4905148566044C467.3329070976236,629.7406960124844,486.7350134842954,633.8352076339147,504.75,643.7725103468377C524.2396965800615,654.5232824626122,541.2804153080555,675.6266812505596,560.8333333333334,686.0084194428056C578.8027236029596,695.5493741490226,597.9759328986069,701.1876854452432,616.9166666666666,705.2642459002697C635.3771529177112,709.2374440431248,654.2857005798303,709.7785323001591,673,710.509477882876C691.6746734621892,711.2388757496838,710.3950550711115,710.300807187622,729.0833333333333,709.6581889449085C747.783952106172,709.0151463593456,766.5537578547991,708.9716180170047,785.1666666666667,706.6510731420453C803.9440944965412,704.3100170311512,823.1357305397839,702.5413158629018,841.25,695.6031692523214C860.6069527568271,688.1890487736624,878.1100915158039,670.71356856959,897.3333333333333,662.2082910400885C915.5527645950121,654.1471470987507,934.557018872883,649.2739797998398,953.4166666666667,645.102523987837C971.9515484275331,641.0029012858886,990.7769638411964,639.3493031933616,1009.5,637.2382877891334C1028.1660265822245,635.1337001935856,1046.9292653624152,631.7804100236893,1065.5833333333333,632.446404576028C1084.3185061150625,633.1152947628337,1103.107108843772,637.1219832057064,1121.6666666666667,641.3021128024837C1140.500006657443,645.5439057725996,1159.1856064550268,651.5062938871997,1177.75,657.8216835615037C1196.5782179979046,664.2268232307018,1214.8011257024712,675.9077662437626,1233.8333333333333,679.5331612192135C1252.2127860632565,683.0342146372392,1271.2536176179779,678.7795403150043,1289.9166666666667,679.9315274281245C1308.6427188351497,681.0874034439584,1346,686.4774292409091,1346,686.4774292409091L1346,691.5437025742424C1346,691.5437025742424,1308.6436852129457,686.0800839371942,1289.9166666666667,684.8929687614577C1271.2545708600692,683.7099690710206,1252.2033374501273,687.9785471006181,1233.8333333333333,684.4119745525469C1214.7902374746575,680.7147199146043,1196.58426379431,668.8379100385251,1177.75,662.3389235615037C1159.191313252975,655.935028218558,1140.5034838107808,649.9148144096706,1121.6666666666667,645.6284954691504C1103.1103857937792,641.4060125750101,1084.318985675172,637.3684548077656,1065.5833333333333,636.698652576028C1046.9297366242254,636.0317838448128,1028.1648111184797,639.4179191209964,1009.5,641.5579971224668C990.7757331381949,643.7048922263199,971.9443931233357,645.3849213293479,953.4166666666667,649.569531987837C934.5493365122396,653.8308444076904,915.5434105697252,658.8615557101841,897.3333333333333,667.0638083734218C878.0984715195444,675.7276484269862,860.6249152855387,693.4465821087526,841.25,700.9908545856547C823.1494553584956,708.0389081509655,803.948023322715,709.8987823164048,785.1666666666667,712.2776638087121C766.5575476566222,714.6347293611028,747.783844264881,714.625206764413,729.0833333333333,715.2744662782418C710.3949475117175,715.9233048226646,691.6749686731869,716.8897641828273,673,716.173317882876C654.2859982855763,715.455374119745,635.3678044993733,714.9818878615515,616.9166666666666,710.9585405669363C597.9655510057219,706.8261710287691,578.7820944355557,701.0395373269038,560.8333333333334,691.3296141094722C541.251324269678,680.7361361881686,524.2726930554402,659.1758521475559,504.75,648.2406103468378C486.75894301665085,638.163283524932,467.3251246686858,634.1045733153815,448.66666666666663,626.7416708566044C429.9359565357864,619.3502566431482,410.6955132733456,613.9928335453714,392.58333333333337,603.973083908055C373.2236537229478,593.2632111375113,355.92222073128687,573.8801322774026,336.5,563.5139097259805C318.4351607907613,553.872162461881,298.5091808451612,552.2318598270145,280.4166666666667,542.6865189088145C261.0311848471881,532.4590275272994,243.18574577030705,515.6779252098481,224.33333333333331,503.0394572997445C205.7916917887228,490.6093270739378,187.2835122202016,477.87408629753753,168.25,467.42410433824466C149.8716815382256,457.33384384686553,131.2757419909549,447.11649338944596,112.16666666666666,441.13012662490854C93.85305161555215,435.3929564782622,74.80958334381765,434.3210974853141,56.08333333333333,431.5740187744444C37.42047946930916,428.8362400678038,0,424.66666666666663,0,424.66666666666663Z"><title>17 Rioja, La</title></path></g><g id="xAxis" transform="translate(0,728)" fill="none" font-size="10" font-family="sans-serif" text-anchor="middle"><path class="domain" stroke="currentColor" d="M0,0H1346"/><g class="tick" opacity="1" transform="translate(0,0)"><line stroke="currentColor" y2="6"/><text fill="currentColor" y="9" dy="0.71em">1,998</text></g><g class="tick" opacity="1" transform="translate(112.16666666666666,0)"><line stroke="currentColor" y2="6"/><text fill="currentColor" y="9" dy="0.71em">2,000</text></g><g class="tick" opacity="1" transform="translate(224.33333333333331,0)"><line stroke="currentColor" y2="6"/><text fill="currentColor" y="9" dy="0.71em">2,002</text></g><g class="tick" opacity="1" transform="translate(336.5,0)"><line stroke="currentColor" y2="6"/><text fill="currentColor" y="9" dy="0.71em">2,004</text></g><g class="tick" opacity="1" transform="translate(448.66666666666663,0)"><line stroke="currentColor" y2="6"/><text fill="currentColor" y="9" dy="0.71em">2,006</text></g><g class="tick" opacity="1" transform="translate(560.8333333333334,0)"><line stroke="currentColor" y2="6"/><text fill="currentColor" y="9" dy="0.71em">2,008</text></g><g class="tick" opacity="1" transform="translate(673,0)"><line stroke="currentColor" y2="6"/><text fill="currentColor" y="9" dy="0.71em">2,010</text></g><g class="tick" opacity="1" transform="translate(785.1666666666667,0)"><line stroke="currentColor" y2="6"/><text fill="currentColor" y="9" dy="0.71em">2,012</text></g><g class="tick" opacity="1" transform="translate(897.3333333333333,0)"><line stroke="currentColor" y2="6"/><text fill="currentColor" y="9" dy="0.71em">2,014</text></g><g class="tick" opacity="1" transform="translate(1009.5,0)"><line stroke="currentColor" y2="6"/><text fill="currentColor" y="9" dy="0.71em">2,016</text></g><g class="tick" opacity="1" transform="translate(1121.6666666666667,0)"><line stroke="currentColor" y2="6"/><text fill="currentColor" y="9" dy="0.71em">2,018</text></g><g class="tick" opacity="1" transform="translate(1233.8333333333333,0)"><line stroke="currentColor" y2="6"/><text fill="currentColor" y="9" dy="0.71em">2,020</text></g><g class="tick" opacity="1" transform="translate(1346,0)"><line stroke="currentColor" y2="6"/><text fill="currentColor" y="9" dy="0.71em">2,022</text></g></g><text y="724" x="1346" text-anchor="end" style="font-family: Arial, sans-serif; font-size: 12px; fill: rgb(123, 123, 123); font-weight: bold;">ANO</text><text x="4" text-anchor="start" dominant-baseline="hanging" style="font-family: Arial, sans-serif; font-size: 12px; fill: rgb(123, 123, 123); font-weight: bold;">TOTAL</text><g id="labels"><text x="785.1666666666667" y="402.10270780871207" text-anchor="middle" alignment-baseline="middle" style="font-family: Arial, sans-serif; font-size: 10px; fill: black; font-weight: bold; stroke-width: 2px; paint-order: stroke; stroke: white; stroke-linecap: round; stroke-linejoin: round;">01 Andalucía</text><text x="841.25" y="248.23266991898802" text-anchor="middle" alignment-baseline="middle" style="font-family: Arial, sans-serif; font-size: 10px; fill: black; font-weight: bold; stroke-width: 2px; paint-order: stroke; stroke: white; stroke-linecap: round; stroke-linejoin: round;">02 Aragón</text><text x="785.1666666666667" y="353.69452980871205" text-anchor="middle" alignment-baseline="middle" style="font-family: Arial, sans-serif; font-size: 10px; fill: black; font-weight: bold; stroke-width: 2px; paint-order: stroke; stroke: white; stroke-linecap: round; stroke-linejoin: round;">03 Asturias, Principado de</text><text x="785.1666666666667" y="331.753337808712" text-anchor="middle" alignment-baseline="middle" style="font-family: Arial, sans-serif; font-size: 10px; fill: black; font-weight: bold; stroke-width: 2px; paint-order: stroke; stroke: white; stroke-linecap: round; stroke-linejoin: round;">05 Canarias</text><text x="785.1666666666667" y="310.5106618087121" text-anchor="middle" alignment-baseline="middle" style="font-family: Arial, sans-serif; font-size: 10px; fill: black; font-weight: bold; stroke-width: 2px; paint-order: stroke; stroke: white; stroke-linecap: round; stroke-linejoin: round;">06 Cantabria</text><text x="785.1666666666667" y="297.5994604753787" text-anchor="middle" alignment-baseline="middle" style="font-family: Arial, sans-serif; font-size: 10px; fill: black; font-weight: bold; stroke-width: 2px; paint-order: stroke; stroke: white; stroke-linecap: round; stroke-linejoin: round;">07 Castilla y León</text><text x="785.1666666666667" y="272.752941808712" text-anchor="middle" alignment-baseline="middle" style="font-family: Arial, sans-serif; font-size: 10px; fill: black; font-weight: bold; stroke-width: 2px; paint-order: stroke; stroke: white; stroke-linecap: round; stroke-linejoin: round;">08 Castilla - La Mancha</text><text x="1346" y="170.8304185742424" text-anchor="end" alignment-baseline="middle" style="font-family: Arial, sans-serif; font-size: 10px; fill: black; font-weight: bold; stroke-width: 2px; paint-order: stroke; stroke: white; stroke-linecap: round; stroke-linejoin: round;">09 Cataluña</text><text x="673" y="656.2880985495426" text-anchor="middle" alignment-baseline="middle" style="font-family: Arial, sans-serif; font-size: 10px; fill: black; font-weight: bold; stroke-width: 2px; paint-order: stroke; stroke: white; stroke-linecap: round; stroke-linejoin: round;">10 Comunitat Valenciana</text><text x="785.1666666666667" y="255.85181514204538" text-anchor="middle" alignment-baseline="middle" style="font-family: Arial, sans-serif; font-size: 10px; fill: black; font-weight: bold; stroke-width: 2px; paint-order: stroke; stroke: white; stroke-linecap: round; stroke-linejoin: round;">11 Extremadura</text><text x="1346" y="86.470385240909" text-anchor="end" alignment-baseline="middle" style="font-family: Arial, sans-serif; font-size: 10px; fill: black; font-weight: bold; stroke-width: 2px; paint-order: stroke; stroke: white; stroke-linecap: round; stroke-linejoin: round;">12 Galicia</text><text x="673" y="536.5501165495427" text-anchor="middle" alignment-baseline="middle" style="font-family: Arial, sans-serif; font-size: 10px; fill: black; font-weight: bold; stroke-width: 2px; paint-order: stroke; stroke: white; stroke-linecap: round; stroke-linejoin: round;">13 Madrid, Comunidad de</text><text x="673" y="456.3603705495426" text-anchor="middle" alignment-baseline="middle" style="font-family: Arial, sans-serif; font-size: 10px; fill: black; font-weight: bold; stroke-width: 2px; paint-order: stroke; stroke: white; stroke-linecap: round; stroke-linejoin: round;">14 Murcia, Región de</text><text x="1346" y="74.8093419075757" text-anchor="end" alignment-baseline="middle" style="font-family: Arial, sans-serif; font-size: 10px; fill: black; font-weight: bold; stroke-width: 2px; paint-order: stroke; stroke: white; stroke-linecap: round; stroke-linejoin: round;">15 Navarra, Comunidad Foral de</text><text x="1346" y="59.15176057424233" text-anchor="end" alignment-baseline="middle" style="font-family: Arial, sans-serif; font-size: 10px; fill: black; font-weight: bold; stroke-width: 2px; paint-order: stroke; stroke: white; stroke-linecap: round; stroke-linejoin: round;">16 País Vasco</text><text x="616.9166666666666" y="708.111393233603" text-anchor="middle" alignment-baseline="middle" style="font-family: Arial, sans-serif; font-size: 10px; fill: black; font-weight: bold; stroke-width: 2px; paint-order: stroke; stroke: white; stroke-linecap: round; stroke-linejoin: round;">17 Rioja, La</text></g></g><text x="4" y="4" style="font-family: Arial, sans-serif; font-size: 12px; fill: black; font-weight: bold; dominant-baseline: hanging;"/></g></g></svg>